<svg width="48" height="49" viewBox="0 0 48 49" fill="none" xmlns="http://www.w3.org/2000/svg">
<path d="M46.6494 23.7345C46.1994 11.8673 36.6744 2.1439 24.9744 1.68453C18.6744 1.45484 12.8244 3.75172 8.2494 8.11578C3.74941 12.5564 1.27441 18.4517 1.27441 24.8064C1.27441 35.2955 8.1744 44.483 18.0744 47.1627C18.3744 47.2392 18.5994 47.2392 18.8994 47.2392C19.5744 47.2392 20.2494 47.0095 20.7744 46.5502C21.5244 45.9377 21.9744 45.0189 21.9744 44.0236V41.5736C21.9744 40.8845 22.0494 37.9752 22.0494 37.4392C22.1244 37.0564 22.1994 36.7502 22.4244 36.5205C22.8744 35.908 22.9494 35.0658 22.6494 34.3767C22.3494 33.7642 21.7494 33.3048 21.0744 33.3048C20.6244 33.2283 20.0994 33.1517 19.7244 32.9986C19.1244 32.8455 18.5994 32.6158 17.9994 32.3095C17.5494 32.0798 17.1744 31.697 16.7994 31.2377C16.5744 31.008 16.2744 30.472 15.9744 29.4767C15.6744 28.558 15.5994 27.6392 15.5994 26.6439C15.5994 25.2658 15.9744 24.1939 16.7994 23.2752C17.2494 22.7392 17.3994 22.0502 17.0994 21.4377C16.8744 20.9017 16.7994 20.2892 16.9494 19.5236C17.9994 19.9064 18.2994 20.1361 18.3744 20.2127L18.4494 20.2892C18.7494 20.4423 18.9744 20.5955 19.1994 20.7486L19.4244 20.9017C19.7994 21.1314 20.3244 21.208 20.7744 21.0548C21.9744 20.7486 23.2494 20.5189 24.4494 20.5189C25.7244 20.5189 26.9244 20.672 28.1244 21.0548C28.5744 21.208 29.0244 21.1314 29.4744 20.9017L30.2994 20.3658C30.8244 20.0595 31.4244 19.7533 31.9494 19.5236C32.0994 20.2127 32.0244 20.9017 31.7994 21.5142C31.5744 22.1267 31.7244 22.8158 32.0994 23.2752C32.9244 24.1939 33.2994 25.2658 33.2994 26.6439C33.2994 27.7158 33.1494 28.6345 32.9244 29.4002C32.6244 30.1658 32.3994 30.7783 32.0244 31.2377C31.7244 31.6205 31.2744 31.9267 30.6744 32.3095C30.0744 32.6158 29.5494 32.8455 28.9494 32.9986C28.5744 33.0752 28.0494 33.2283 27.5244 33.3048H27.4494C26.7744 33.458 26.2494 33.9173 25.9494 34.5298C25.7244 35.1423 25.7244 35.8314 26.1744 36.4439C26.4744 36.8267 26.6244 37.4392 26.6244 38.1283V43.8705C26.6244 44.8658 27.0744 45.8611 27.8994 46.397C28.7244 47.0095 29.6994 47.1627 30.5994 46.8564C40.6494 43.947 47.1744 34.3002 46.6494 23.7345ZM30.1494 43.6408V38.2814C30.1494 37.5923 30.0744 36.9798 29.9244 36.4439H29.9994C30.7494 36.2142 31.5744 35.908 32.3994 35.4486C32.3994 35.4486 32.4744 35.4486 32.4744 35.372C33.3744 34.8361 34.1244 34.2236 34.6494 33.5345C35.3994 32.6923 35.7744 31.6205 36.1494 30.6252C36.5244 29.4767 36.6744 28.2517 36.6744 26.7205C36.6744 24.883 36.1494 23.1986 35.1744 21.8205C35.4744 20.3658 35.3244 18.758 34.6494 17.0736C34.4994 16.6142 34.0494 16.2314 33.5994 16.0783C32.7744 15.772 31.8744 15.9252 30.6744 16.308C29.9244 16.6142 29.1744 16.997 28.4244 17.3798L28.2744 17.6095C25.7244 16.997 23.0244 16.997 20.4744 17.6095C20.3994 17.533 20.3244 17.533 20.1744 17.4564C19.7244 17.1502 19.1244 16.8439 18.1494 16.4611C16.9494 15.9252 15.9744 15.772 15.0744 16.0783C14.6244 16.2314 14.1744 16.6142 14.0244 17.1502C13.4244 18.9111 13.2744 20.4423 13.5744 21.897C12.5994 23.2752 12.0744 24.9595 12.0744 26.797C12.0744 28.1752 12.2244 29.4002 12.5994 30.6252C12.9744 31.8502 13.4244 32.8455 14.0244 33.5345C14.6994 34.3767 15.4494 34.9892 16.2744 35.4486C17.0244 35.908 17.8494 36.2142 18.6744 36.4439C18.7494 36.4439 18.7494 36.4439 18.8244 36.4439C18.7494 36.6736 18.7494 36.9798 18.6744 37.2095C18.6744 37.2861 18.6744 37.3627 18.6744 37.3627C18.6744 37.3627 18.6744 38.358 18.6744 39.4298C17.0244 38.8173 15.6744 37.9752 14.4744 36.7502C13.5744 35.6783 12.5244 34.683 11.9994 34.3767C10.9494 33.8408 10.2744 34.9127 10.4244 35.5252C10.6494 36.2908 11.6994 36.7502 12.3744 37.3627C13.0494 38.0517 13.1994 38.9705 13.6494 39.7361C14.3244 40.7314 16.6494 42.033 18.5994 42.033V43.7939C10.4244 41.4205 4.72441 33.6877 4.72441 24.883C4.72441 19.447 6.82441 14.3939 10.6494 10.6423C14.2494 7.0439 19.0494 5.12984 24.0744 5.12984C24.2994 5.12984 24.5994 5.12984 24.8244 5.12984C34.7994 5.51265 42.8994 13.7814 43.2744 23.8877C43.7244 32.7689 38.3244 40.8845 30.1494 43.6408Z" fill="url(#paint0_linear_2_110)"/>
<defs>
<linearGradient id="paint0_linear_2_110" x1="23.9767" y1="1.66882" x2="23.9767" y2="47.2392" gradientUnits="userSpaceOnUse">
<stop stop-color="white"/>
<stop offset="1" stop-color="#505050"/>
</linearGradient>
</defs>
</svg>
