<svg width="48" height="49" viewBox="0 0 48 49" fill="none" xmlns="http://www.w3.org/2000/svg">
<path d="M24.0012 13.4747C18.0762 13.4747 13.2012 18.3747 13.2012 24.4997C13.2012 30.5481 18.0012 35.5247 24.0012 35.5247C29.9262 35.5247 34.7262 30.6247 34.7262 24.4997C34.7262 18.4512 29.9262 13.4747 24.0012 13.4747ZM24.0012 32.0794C19.9512 32.0794 16.5762 28.7106 16.5762 24.4997C16.5762 20.3653 19.8762 16.92 24.0012 16.92C28.0512 16.92 31.3512 20.2887 31.3512 24.4997C31.3512 28.6341 28.0512 32.0794 24.0012 32.0794Z" fill="url(#paint0_linear_2_112)"/>
<path d="M35.25 8.88092C33.75 8.88092 32.625 10.1059 32.625 11.5606C32.625 13.0153 33.825 14.2403 35.25 14.2403C36.675 14.2403 37.875 13.0153 37.875 11.5606C37.875 10.1059 36.75 8.88092 35.25 8.88092Z" fill="url(#paint1_linear_2_112)"/>
<path d="M35.1756 1.37799H12.8256C6.45058 1.37799 1.35059 6.58424 1.35059 13.0921V35.9842C1.35059 42.4155 6.52558 47.6983 12.8256 47.6983H35.2506C41.5506 47.6983 46.7256 42.4155 46.7256 35.9842V13.0921C46.7256 6.58424 41.5506 1.37799 35.1756 1.37799ZM43.3506 35.9077C43.3506 40.5014 39.7506 44.1764 35.2506 44.1764H12.8256C8.3256 44.1764 4.72559 40.5014 4.72559 35.9077V13.0921C4.72559 8.4983 8.4006 4.8233 12.8256 4.8233H35.1756C39.6756 4.8233 43.2756 8.57487 43.2756 13.0921V35.9077H43.3506Z" fill="url(#paint2_linear_2_112)"/>
<defs>
<linearGradient id="paint0_linear_2_112" x1="23.9637" y1="13.4747" x2="23.9637" y2="35.5247" gradientUnits="userSpaceOnUse">
<stop stop-color="white"/>
<stop offset="1" stop-color="#505050"/>
</linearGradient>
<linearGradient id="paint1_linear_2_112" x1="35.25" y1="8.88092" x2="35.25" y2="14.2403" gradientUnits="userSpaceOnUse">
<stop stop-color="white"/>
<stop offset="1" stop-color="#505050"/>
</linearGradient>
<linearGradient id="paint2_linear_2_112" x1="24.0381" y1="1.37799" x2="24.0381" y2="47.6983" gradientUnits="userSpaceOnUse">
<stop stop-color="white"/>
<stop offset="1" stop-color="#505050"/>
</linearGradient>
</defs>
</svg>
