<svg width="48" height="49" viewBox="0 0 48 49" fill="none" xmlns="http://www.w3.org/2000/svg">
<g clip-path="url(#clip0_2_116)">
<mask id="mask0_2_116" style="mask-type:luminance" maskUnits="userSpaceOnUse" x="0" y="0" width="48" height="49">
<path d="M48 0H0V49H48V0Z" fill="white"/>
</mask>
<g mask="url(#mask0_2_116)">
<path d="M10.95 48.2344H4.275C1.95 48.2344 0 46.3203 0 44.0234V21.4375C0 19.0641 1.875 17.2266 4.275 17.2266H10.95C13.275 17.2266 15.225 19.1406 15.225 21.4375V44.0234C15.3 46.3203 13.35 48.2344 10.95 48.2344ZM4.275 20.9781C4.05 20.9781 3.825 21.0547 3.825 21.2844V43.8703C3.825 43.9469 3.9 44.1766 4.275 44.1766H10.95C11.175 44.1766 11.4 44.1 11.4 43.8703V21.4375C11.4 21.3609 11.175 21.1313 10.95 21.1313H4.275V20.9781Z" fill="url(#paint0_linear_2_116)"/>
<path d="M44.0988 48.2344H37.3488C35.0238 48.2344 33.0738 46.3203 33.0738 44.0234V34.6828C33.0738 34.2234 32.7738 33.9172 32.1738 33.9172C31.7238 33.9172 31.2738 34.2234 31.2738 34.6828V43.9469C31.2738 46.3203 29.3988 48.1578 26.9988 48.1578H20.3238C17.9988 48.1578 16.0488 46.2438 16.0488 43.9469V21.4375C16.0488 19.0641 17.9238 17.2266 20.3238 17.2266H26.9988C28.4238 17.2266 29.6238 17.9156 30.3738 18.9875C30.6738 18.9109 31.0488 18.6813 31.2738 18.5281C33.5988 17.3797 36.2238 17.0734 38.6238 17.3797C43.8738 18.0688 47.9238 22.5094 47.9988 27.8688V44.1766C48.2238 46.3203 46.3488 48.2344 44.0988 48.2344ZM32.2488 30.1656C34.7988 30.1656 36.8238 32.3094 36.8238 34.7594V44.0234C36.8238 44.1 36.8988 44.3297 37.2738 44.3297H43.9488C44.1738 44.3297 44.3988 44.2531 44.3988 44.0234V27.7922C44.3238 24.4234 41.6988 21.5141 38.2488 21.2078C36.5238 20.9781 34.4988 21.2844 32.7738 22.1266C31.8738 22.4328 31.1238 23.0453 30.3738 23.5047L27.4488 25.6484V21.4375C27.4488 21.3609 27.3738 21.1313 26.9988 21.1313H20.3238C20.0988 21.1313 19.8738 21.2078 19.8738 21.4375V44.0234C19.8738 44.1 19.9488 44.3297 20.3238 44.3297H27.0738C27.2988 44.3297 27.5238 44.2531 27.5238 44.0234V34.6828C27.6738 32.1562 29.6238 30.1656 32.2488 30.1656Z" fill="url(#paint1_linear_2_116)"/>
<path d="M8.09939 16.7672C3.74941 16.7672 0.149414 13.1688 0.149414 8.72813C0.149414 4.2875 3.59941 0.765625 8.09939 0.765625C12.5994 0.765625 16.0494 4.36406 16.0494 8.80469C16.0494 13.2453 12.4494 16.7672 8.09939 16.7672ZM8.09939 4.67031C5.77441 4.67031 3.82441 6.58438 3.82441 8.80469C3.82441 11.1781 5.69941 12.9391 8.09939 12.9391C10.4994 12.9391 12.3744 11.025 12.3744 8.80469C12.3744 6.43125 10.4994 4.67031 8.09939 4.67031Z" fill="url(#paint2_linear_2_116)"/>
</g>
</g>
<defs>
<linearGradient id="paint0_linear_2_116" x1="7.61355" y1="17.2266" x2="7.61355" y2="48.2344" gradientUnits="userSpaceOnUse">
<stop stop-color="white"/>
<stop offset="0.9999" stop-color="#060606"/>
<stop offset="1" stop-opacity="0"/>
</linearGradient>
<linearGradient id="paint1_linear_2_116" x1="32.033" y1="17.2266" x2="32.033" y2="48.2344" gradientUnits="userSpaceOnUse">
<stop stop-color="white"/>
<stop offset="0.9999" stop-color="#060606"/>
<stop offset="1" stop-opacity="0"/>
</linearGradient>
<linearGradient id="paint2_linear_2_116" x1="8.0994" y1="0.765625" x2="8.0994" y2="16.7672" gradientUnits="userSpaceOnUse">
<stop stop-color="white"/>
<stop offset="0.9999" stop-color="#060606"/>
<stop offset="1" stop-opacity="0"/>
</linearGradient>
<clipPath id="clip0_2_116">
<rect width="48" height="49" fill="white"/>
</clipPath>
</defs>
</svg>
